<svg width="188" height="101" viewBox="0 0 188 101" fill="none" xmlns="http://www.w3.org/2000/svg">
<path d="M186.248 0.630615L50.3029 0.640766C50.3055 0.640766 50.3131 0.651779 50.3131 0.651779C39.9981 0.651779 31.1365 6.8181 27.2817 15.611L0.4473 80.2527C0.374443 80.4221 0.332886 80.6033 0.332886 80.7964C0.332886 81.5706 0.970734 82.1974 1.75673 82.1974L63.1421 82.194C67.5042 82.194 69.4049 77.9928 66.0016 74.642L43.4564 53.5491C31.6083 41.9339 36.6896 15.0011 61.2956 15.0011H181.464C182.085 15.0011 182.621 14.6064 182.81 14.0559L187.566 2.56602C187.633 2.40426 187.667 2.22134 187.667 2.03242C187.667 1.25823 187.037 0.630615 186.248 0.630615Z" fill="#03234B"/>
<path d="M172.704 33.5323L149.628 33.5568C148.071 33.5568 146.734 34.4962 146.175 35.842L120.319 98.3196C120.217 98.5127 120.158 98.738 120.158 98.9668C120.158 99.7392 120.795 100.366 121.576 100.366L130.192 100.369L130.188 100.361C140.649 100.361 149.677 94.0252 153.442 85.035C153.442 85.035 153.458 85.0451 153.471 85.0553L174.022 35.4516C174.084 35.2907 174.123 35.1162 174.123 34.9341C174.123 34.1565 173.486 33.5323 172.704 33.5323Z" fill="#03234B"/>
<path d="M127.342 34.9341C127.342 34.1565 126.704 33.5323 125.919 33.5323H60.4908C56.9452 33.5323 53.8384 37.8952 57.5949 41.3553L79.2126 61.4704C79.2126 61.4704 87.9673 69.5366 86.0895 81.0777C84.4336 91.2402 77.499 97.4624 72.483 99.7003L72.4695 99.7037C72.3492 99.7646 72.2695 99.8866 72.2695 100.017C72.2695 100.212 72.4254 100.369 72.6253 100.369L97.8406 100.373C99.4009 100.373 100.739 99.4343 101.295 98.0875L127.247 35.433C127.309 35.2738 127.342 35.1085 127.342 34.9341Z" fill="#03234B"/>
</svg>
