<svg width="400" height="300" xmlns="http://www.w3.org/2000/svg">
    <rect x="0" y="0" width="100%" height="100%" fill="rgba(255,255,255,0.7)" />

    <defs>
        <marker id="connection" viewBox="0 0 6 6" refX="3" refY="3" markerWidth="6" markerHeight="6" orient="auto">
            <circle cx="3" cy="3" r="2.5" fill="black"/>
        </marker>
        <marker id="arrow" viewBox="0 0 10 10" refX="5" refY="5" markerWidth="6" markerHeight="6" orient="auto-start-reverse">
            <path d="M 0 0 L 10 5 L 0 10 z" />
        </marker>
        <marker id="diode" viewBox="0 0 10 10" refX="5" refY="5" markerWidth="10" markerHeight="10" orient="auto">
            <polyline points="0 0, 0 10" stroke="black" fill="transparent" stroke-width="2" />
            <polyline points="10 0, 10 10" stroke="black" fill="transparent" stroke-width="2" />
            <polyline points="0 0, 10 5, 0 10" stroke="black" fill="transparent" stroke-width="1" />
        </marker>
    </defs>


    <!-- Блок питания -->
    <g>
        <rect x="10" y="10" width="80" height="50" stroke="black" fill="transparent" stroke-width="2" />
        <text x="50" y="30" text-anchor="middle" font-family="sans-serif">
            <tspan x="50">Блок</tspan>
            <tspan x="50" dy="1.2em">питания</tspan>
        </text>
    </g>

    <!-- От БП до DC-DC -->
    <polyline points="90 35, 130 35, 250 35" stroke="black" fill="transparent" stroke-width="2" marker-mid="url(#diode)"/>

    <!-- Понижающий DC-DC преобразователь -->
    <g>
        <rect x="250" y="10" width="80" height="50" stroke="black" fill="transparent" stroke-width="2" />
        <text x="290" y="30" text-anchor="middle" font-family="sans-serif">
            <tspan x="290">DC-DC</tspan>
            <tspan x="290" dy="1.2em">converter</tspan>
        </text>
    </g>

    <!-- Выход на нагрузку -->
    <polyline points="330 35, 385 35" stroke="black" fill="transparent" stroke-width="2" marker-end="url(#arrow)" />

    <!-- Модуль заряда -->
    <g>
        <rect x="250" y="140" width="80" height="50" stroke="black" fill="transparent" stroke-width="2" />
        <text x="290" y="170" text-anchor="middle" font-family="sans-serif">Charger</text>
    </g>

    <!-- От БП на модуль заряда -->
    <polyline points="220 35, 220 95, 220 155" stroke="black" fill="transparent" stroke-width="2" marker-start="url(#connection)" marker-mid="url(#diode)" />
    <polyline points="220 155, 250 155" stroke="black" fill="transparent" stroke-width="2" />

    <!-- От модуля заряда на BMS -->
    <polyline points="250 175, 90 175" stroke="black" fill="transparent" stroke-width="2" />

    <!-- От BMS на преобразователь (от аккумулятора на нагрузку), с выключателем -->
    <polyline points="180 175, 180 150, 170 130" stroke="black" fill="transparent" stroke-width="2" marker-start="url(#connection)" />
    <polyline points="168 135, 181 135" stroke="black" fill="transparent" stroke-width="2" />
    <polyline points="180 135, 180 95, 180 35" stroke="black" fill="transparent" stroke-width="2" marker-mid="url(#diode)" marker-end="url(#connection)" />

    <!-- BMS (плата защиты аккумулятора) -->
    <g>
        <rect x="10" y="150" width="80" height="50" stroke="black" fill="transparent" stroke-width="2" />
        <text x="50" y="180" text-anchor="middle" font-family="sans-serif">BMS</text>
    </g>

    <!-- Аккумулятор -->
    <g>
        <rect x="10" y="240" width="80" height="50" stroke="black" fill="transparent" stroke-width="2" />
        <rect x="20" y="235" width="10" height="5" stroke="black" fill="transparent" stroke-width="2" />
        <rect x="70" y="235" width="10" height="5" stroke="black" fill="transparent" stroke-width="2" />
        <text x="50" y="270" text-anchor="middle" font-family="sans-serif">АКБ</text>
    </g>

    <!-- Подключение аккумулятора к BMS -->
    <polyline points="25 200, 25 235" stroke="black" fill="transparent" stroke-width="2" />
    <polyline points="75 200, 75 235" stroke="black" fill="transparent" stroke-width="2" />
</svg>
